<svg xmlns="http://www.w3.org/2000/svg" viewBox="0 0 226.03 39.72"><defs><style>.cls-1{fill:#23a2f7;}</style></defs><g id="Layer_2" data-name="Layer 2"><g id="레이어_1" data-name="레이어 1"><path class="cls-1" d="M66.83,18.11a6.89,6.89,0,0,0-3.21-.85,2.39,2.39,0,0,0-1.32.33,1,1,0,0,0-.51.88,1.21,1.21,0,0,0,.08.47.87.87,0,0,0,.36.35,2.93,2.93,0,0,0,.82.29l1.43.33a6.83,6.83,0,0,1,3.66,1.75,4.46,4.46,0,0,1,1.21,3.22,5.78,5.78,0,0,1-.59,2.66,5.7,5.7,0,0,1-1.64,2,7.86,7.86,0,0,1-2.51,1.24,11.43,11.43,0,0,1-3.24.44,13.13,13.13,0,0,1-6.71-1.93l2.16-4.19a8.4,8.4,0,0,0,4.71,1.7,2.33,2.33,0,0,0,1.34-.36,1.07,1.07,0,0,0,.53-.91,1.38,1.38,0,0,0-.09-.54.84.84,0,0,0-.34-.4,2.47,2.47,0,0,0-.77-.32,13.26,13.26,0,0,0-1.32-.31A7.66,7.66,0,0,1,57,22.28a4.08,4.08,0,0,1-1.09-3,6,6,0,0,1,.52-2.54A5.27,5.27,0,0,1,58,14.81a7.13,7.13,0,0,1,2.38-1.22,10.59,10.59,0,0,1,3.09-.42,14.07,14.07,0,0,1,5.4,1.08Z"/><path class="cls-1" d="M85,13.79h6V30.58H85V28.71a6.19,6.19,0,0,1-5.13,2.39,8.33,8.33,0,0,1-3.38-.67,8.13,8.13,0,0,1-2.68-1.88A8.7,8.7,0,0,1,72,25.7a10,10,0,0,1,0-7,8.68,8.68,0,0,1,1.74-2.83,8,8,0,0,1,6.05-2.62A6.83,6.83,0,0,1,85,15.46Zm-7.46,8.35a3.85,3.85,0,0,0,.3,1.52,3.64,3.64,0,0,0,.8,1.22,3.51,3.51,0,0,0,1.21.82,3.82,3.82,0,0,0,1.52.3,3.78,3.78,0,0,0,1.49-.3,3.51,3.51,0,0,0,1.21-.82,4.1,4.1,0,0,0,.82-1.21,3.49,3.49,0,0,0,.31-1.47,3.62,3.62,0,0,0-.31-1.49,4.2,4.2,0,0,0-.82-1.23,3.62,3.62,0,0,0-1.21-.81,3.78,3.78,0,0,0-1.49-.3,3.82,3.82,0,0,0-1.52.3,3.62,3.62,0,0,0-1.21.81,3.88,3.88,0,0,0-.8,1.2,3.53,3.53,0,0,0-.3,1.46"/><path class="cls-1" d="M94.65,13.79h5.92v2.13a6.6,6.6,0,0,1,2.45-2,7.66,7.66,0,0,1,2.92-.51,7.27,7.27,0,0,1,3,.57,6.27,6.27,0,0,1,2.15,1.62,4.73,4.73,0,0,1,1,1.9,10.17,10.17,0,0,1,.26,2.39V30.58h-5.92V22.1a9.08,9.08,0,0,0-.18-2,2.58,2.58,0,0,0-.64-1.23,2.29,2.29,0,0,0-.88-.55,3.3,3.3,0,0,0-1-.17,2.93,2.93,0,0,0-2.31.9,3.77,3.77,0,0,0-.8,2.57v9H94.65Z"/><path class="cls-1" d="M129,3.42h6V30.58h-6V28.71a6.21,6.21,0,0,1-5.14,2.39,8.28,8.28,0,0,1-3.37-.68,8.53,8.53,0,0,1-2.69-1.9A8.87,8.87,0,0,1,116,25.67a10,10,0,0,1,0-7,8.31,8.31,0,0,1,1.72-2.83,8.06,8.06,0,0,1,6.08-2.62A6.86,6.86,0,0,1,129,15.46Zm-7.46,18.72a3.85,3.85,0,0,0,.29,1.52,3.8,3.8,0,0,0,.8,1.22,3.51,3.51,0,0,0,1.21.82,3.87,3.87,0,0,0,1.53.3,3.73,3.73,0,0,0,1.48-.3,3.41,3.41,0,0,0,1.21-.82,3.92,3.92,0,0,0,.82-1.21,3.49,3.49,0,0,0,.31-1.47,3.62,3.62,0,0,0-.31-1.49,4,4,0,0,0-.82-1.23,3.53,3.53,0,0,0-1.21-.81,3.73,3.73,0,0,0-1.48-.3,3.83,3.83,0,0,0-1.5.3,3.73,3.73,0,0,0-1.21.81,4.3,4.3,0,0,0-.81,1.2,3.38,3.38,0,0,0-.31,1.46"/><path class="cls-1" d="M144.58,3.42v12a7,7,0,0,1,5.24-2.19,8.21,8.21,0,0,1,3.42.7,8.08,8.08,0,0,1,2.65,1.9,8.89,8.89,0,0,1,1.72,2.81,9.66,9.66,0,0,1,.62,3.46,9.46,9.46,0,0,1-.64,3.5,8.54,8.54,0,0,1-4.48,4.76,8.06,8.06,0,0,1-3.36.7,6.24,6.24,0,0,1-5.17-2.39v1.87h-5.92V3.42Zm7.47,18.81a3.78,3.78,0,0,0-.3-1.49,3.91,3.91,0,0,0-.82-1.22,4.1,4.1,0,0,0-1.21-.84,3.74,3.74,0,0,0-1.51-.31,3.65,3.65,0,0,0-1.47.3,3.54,3.54,0,0,0-1.19.81,4.2,4.2,0,0,0-.82,1.23,3.62,3.62,0,0,0-.31,1.49,3.82,3.82,0,0,0,.29,1.47,3.71,3.71,0,0,0,.82,1.2,4.2,4.2,0,0,0,1.23.82,3.75,3.75,0,0,0,1.49.31,3.65,3.65,0,0,0,1.47-.3,3.43,3.43,0,0,0,1.19-.82,3.92,3.92,0,0,0,.82-1.21,3.4,3.4,0,0,0,.32-1.44"/><path class="cls-1" d="M174.23,13.79h6V30.58h-6V28.71a6.21,6.21,0,0,1-5.14,2.39,8.31,8.31,0,0,1-3.37-.67A8.13,8.13,0,0,1,163,28.55a8.7,8.7,0,0,1-1.78-2.85,9.63,9.63,0,0,1-.64-3.56,9.35,9.35,0,0,1,.62-3.42A8.65,8.65,0,0,1,163,15.89,8.2,8.2,0,0,1,165.62,14a8.09,8.09,0,0,1,3.41-.7,6.83,6.83,0,0,1,5.2,2.19Zm-7.46,8.35a4,4,0,0,0,.29,1.52,3.83,3.83,0,0,0,.81,1.22,3.51,3.51,0,0,0,1.21.82,3.82,3.82,0,0,0,1.52.3,3.78,3.78,0,0,0,1.49-.3,3.51,3.51,0,0,0,1.21-.82,4.1,4.1,0,0,0,.82-1.21,3.65,3.65,0,0,0,.31-1.47,3.79,3.79,0,0,0-.31-1.49,4.2,4.2,0,0,0-.82-1.23,3.62,3.62,0,0,0-1.21-.81,3.78,3.78,0,0,0-1.49-.3,3.82,3.82,0,0,0-1.52.3,3.62,3.62,0,0,0-1.21.81,4.09,4.09,0,0,0-.81,1.2,3.69,3.69,0,0,0-.29,1.46"/><path class="cls-1" d="M183.88,13.79h5.93v2.13a6.45,6.45,0,0,1,2.45-2,7.64,7.64,0,0,1,2.91-.51,7.31,7.31,0,0,1,3,.57,6.14,6.14,0,0,1,2.14,1.62,4.75,4.75,0,0,1,1,1.9,10.17,10.17,0,0,1,.26,2.39V30.58h-5.93V22.1a9.08,9.08,0,0,0-.18-2,2.57,2.57,0,0,0-.63-1.23,2.32,2.32,0,0,0-.89-.55,3.26,3.26,0,0,0-1.05-.17,2.91,2.91,0,0,0-2.3.9,3.72,3.72,0,0,0-.8,2.57v9h-5.93Z"/><polygon class="cls-1" points="211.21 3.42 211.21 19.84 217.43 13.79 225.54 13.79 217.13 21.55 226.03 30.58 217.72 30.58 211.21 23.74 211.21 30.58 205.28 30.58 205.28 3.42 211.21 3.42"/><path class="cls-1" d="M6.54,34.59A19.86,19.86,0,0,0,28,38L14.53,29.55Z"/><path class="cls-1" d="M30.73,36.48a20,20,0,0,0,8.15-10.92l-8.12,3.91L14.53,19.31l-13,8.2a20,20,0,0,0,3.08,5.07l9.92-6.36Z"/><path class="cls-1" d="M35.94,8.22H3.77A18.14,18.14,0,0,0,2.69,9.88H37A18.14,18.14,0,0,0,35.94,8.22Z"/><path class="cls-1" d="M38.74,13.71H1c-.19.59-.36,1.2-.5,1.82H39.23A18,18,0,0,0,38.74,13.71Z"/><path class="cls-1" d="M19.85,0A19.94,19.94,0,0,0,13,1.23H26.75A20,20,0,0,0,19.85,0Z"/><path class="cls-1" d="M37.57,10.88H2.14a18.8,18.8,0,0,0-.81,1.83H38.38A18.8,18.8,0,0,0,37.57,10.88Z"/><path class="cls-1" d="M33.46,5.39H6.25a20.27,20.27,0,0,0-1.43,1.5H34.89A20.27,20.27,0,0,0,33.46,5.39Z"/><path class="cls-1" d="M29.62,2.57H10.09A18,18,0,0,0,7.83,4.06h24A18,18,0,0,0,29.62,2.57Z"/><path class="cls-1" d="M39.43,16.54h-24l3.15,2h21.1A18.34,18.34,0,0,0,39.43,16.54Z"/><path class="cls-1" d="M39.71,19.86c0-.22,0-.44,0-.66H19.61L23,21.36H39.65Q39.71,20.61,39.71,19.86Z"/><path class="cls-1" d="M27.48,24.18h7.9l4.19-2c0-.05,0-.11,0-.16H24.07Z"/><path class="cls-1" d="M.64,24.89,5.11,22h-5A20.75,20.75,0,0,0,.64,24.89Z"/><polygon class="cls-1" points="30.88 26.33 33.99 24.85 28.54 24.85 30.88 26.33"/><path class="cls-1" d="M.05,18.53h10.5l3.11-2H.28A18.34,18.34,0,0,0,.05,18.53Z"/><path class="cls-1" d="M0,19.86q0,.75.06,1.5H6.15L9.51,19.2H0C0,19.42,0,19.64,0,19.86Z"/></g></g></svg>